<svg width="36" height="36" viewBox="0 0 36 36" xmlns="http://www.w3.org/2000/svg">
  <path fill-rule="evenodd" clip-rule="evenodd"
    d="M3.33317 0.666626C1.86042 0.666626 0.666504 1.86055 0.666504 3.33329V32.6666C0.666504 34.1394 1.86042 35.3333 3.33317 35.3333H32.6665C34.1393 35.3333 35.3332 34.1394 35.3332 32.6666V3.33329C35.3332 1.86055 34.1393 0.666626 32.6665 0.666626H3.33317ZM6.13317 14H11.1998V30H6.13317V14ZM11.5332 8.67996C11.5332 10.2632 10.2497 11.5466 8.6665 11.5466C7.0833 11.5466 5.79984 10.2632 5.79984 8.67996C5.79984 7.09673 7.0833 5.81329 8.6665 5.81329C10.2497 5.81329 11.5332 7.09673 11.5332 8.67996ZM29.9998 20.2856C29.9998 15.4722 26.8889 13.6008 23.7985 13.6008C22.7866 13.551 21.7791 13.7631 20.8765 14.2161C20.1911 14.5601 19.4736 15.3472 18.9203 16.716H18.7779V14.0011H13.9998V30.0125H19.0829V21.4965C19.0094 20.6243 19.2886 19.4971 19.8596 18.8263C20.4307 18.1555 21.2475 17.9953 21.8669 17.9139H22.0601C23.6765 17.9139 24.8761 18.9147 24.8761 21.4364V30.0125H29.959L29.9998 20.2856Z"
    fill="currentColor">
  </path>
</svg>